HIERARCHY
ROOT Hips
{
	OFFSET -14.64140 90.27770 -84.91600
	CHANNELS 6 Xposition Yposition Zposition Zrotation Xrotation Yrotation
	JOINT Spine
	{
		OFFSET 0.00000 13.20850 -1.60436
		CHANNELS 3 Zrotation Xrotation Yrotation
		JOINT Spine1
		{
			OFFSET 0.00000 8.61716 0.00000
			CHANNELS 3 Zrotation Xrotation Yrotation
			JOINT Spine2
			{
				OFFSET 0.00000 8.61717 0.00000
				CHANNELS 3 Zrotation Xrotation Yrotation
				JOINT Spine3
				{
					OFFSET 0.00000 8.61717 0.00000
					CHANNELS 3 Zrotation Xrotation Yrotation
					JOINT Neck
					{
						OFFSET 0.00000 11.07920 1.10792
						CHANNELS 3 Zrotation Xrotation Yrotation
						JOINT Neck1
						{
							OFFSET 0.00000 7.08032 0.00000
							CHANNELS 3 Zrotation Xrotation Yrotation
							JOINT Head
							{
								OFFSET 0.00000 7.08031 0.00000
								CHANNELS 3 Zrotation Xrotation Yrotation
								End site
								{
									OFFSET 0.00000 0.00000 0.00000
								}
							}
						}
					}
					JOINT RightShoulder
					{
						OFFSET -0.01000 7.91373 5.19711
						CHANNELS 3 Zrotation Xrotation Yrotation
						JOINT RightArm
						{
							OFFSET -18.41580 0.00000 0.00000
							CHANNELS 3 Zrotation Xrotation Yrotation
							JOINT RightForeArm
							{
								OFFSET -29.11090 0.00000 0.00000
								CHANNELS 3 Zrotation Xrotation Yrotation
								JOINT RightHand
								{
									OFFSET -24.65040 0.00000 0.00000
									CHANNELS 3 Zrotation Xrotation Yrotation
									JOINT RightHandThumb1
									{
										OFFSET -5.35114 -0.85590 3.97906
										CHANNELS 3 Zrotation Xrotation Yrotation
										JOINT RightHandThumb2
										{
											OFFSET -4.52789 0.00000 0.00000
											CHANNELS 3 Zrotation Xrotation Yrotation
											JOINT RightHandThumb3
											{
												OFFSET -2.46976 0.00000 0.00000
												CHANNELS 3 Zrotation Xrotation Yrotation
												End site
												{
													OFFSET 0.00000 0.00000 0.00000
												}
											}
										}
									}
									JOINT RightHandIndex1
									{
										OFFSET -14.26970 0.00000 2.88139
										CHANNELS 3 Zrotation Xrotation Yrotation
										JOINT RightHandIndex2
										{
											OFFSET -5.48836 0.00000 0.00000
											CHANNELS 3 Zrotation Xrotation Yrotation
											JOINT RightHandIndex3
											{
												OFFSET -3.01859 0.00000 0.00000
												CHANNELS 3 Zrotation Xrotation Yrotation
												End site
												{
													OFFSET 0.00000 0.00000 0.00000
												}
											}
										}
									}
									JOINT RightHandMiddle1
									{
										OFFSET -14.26970 0.00000 -0.09147
										CHANNELS 3 Zrotation Xrotation Yrotation
										JOINT RightHandMiddle2
										{
											OFFSET -6.17441 0.00000 0.00000
											CHANNELS 3 Zrotation Xrotation Yrotation
											JOINT RightHandMiddle3
											{
												OFFSET -3.56743 0.00000 0.00000
												CHANNELS 3 Zrotation Xrotation Yrotation
												End site
												{
													OFFSET 0.00000 0.00000 0.00000
												}
											}
										}
									}
									JOINT RightHandRing1
									{
										OFFSET -12.69180 0.00000 -3.06433
										CHANNELS 3 Zrotation Xrotation Yrotation
										JOINT RightHandRing2
										{
											OFFSET -5.62556 0.00000 0.00000
											CHANNELS 3 Zrotation Xrotation Yrotation
											JOINT RightHandRing3
											{
												OFFSET -3.56744 0.00000 0.00000
												CHANNELS 3 Zrotation Xrotation Yrotation
												End site
												{
													OFFSET 0.00000 0.00000 0.00000
												}
											}
										}
									}
									JOINT RightHandPinky1
									{
										OFFSET -11.11390 0.00000 -6.03719
										CHANNELS 3 Zrotation Xrotation Yrotation
										JOINT RightHandPinky2
										{
											OFFSET -4.52789 0.00000 0.00000
											CHANNELS 3 Zrotation Xrotation Yrotation
											JOINT RightHandPinky3
											{
												OFFSET -2.46976 0.00000 0.00000
												CHANNELS 3 Zrotation Xrotation Yrotation
												End site
												{
													OFFSET 0.00000 0.00000 0.00000
												}
											}
										}
									}
								}
							}
						}
					}
					JOINT LeftShoulder
					{
						OFFSET 0.01000 7.91373 5.19711
						CHANNELS 3 Zrotation Xrotation Yrotation
						JOINT LeftArm
						{
							OFFSET 18.41580 0.00000 0.00000
							CHANNELS 3 Zrotation Xrotation Yrotation
							JOINT LeftForeArm
							{
								OFFSET 29.11090 0.00000 0.00000
								CHANNELS 3 Zrotation Xrotation Yrotation
								JOINT LeftHand
								{
									OFFSET 24.65040 0.00000 0.00000
									CHANNELS 3 Zrotation Xrotation Yrotation
									JOINT LeftHandThumb1
									{
										OFFSET 5.35114 -0.85590 3.97906
										CHANNELS 3 Zrotation Xrotation Yrotation
										JOINT LeftHandThumb2
										{
											OFFSET 4.52789 0.00000 0.00000
											CHANNELS 3 Zrotation Xrotation Yrotation
											JOINT LeftHandThumb3
											{
												OFFSET 2.46977 0.00000 0.00000
												CHANNELS 3 Zrotation Xrotation Yrotation
												End site
												{
													OFFSET 0.00000 0.00000 0.00000
												}
											}
										}
									}
									JOINT LeftHandIndex1
									{
										OFFSET 14.26970 0.00000 2.88139
										CHANNELS 3 Zrotation Xrotation Yrotation
										JOINT LeftHandIndex2
										{
											OFFSET 5.48836 0.00000 0.00000
											CHANNELS 3 Zrotation Xrotation Yrotation
											JOINT LeftHandIndex3
											{
												OFFSET 3.01859 0.00000 0.00000
												CHANNELS 3 Zrotation Xrotation Yrotation
												End site
												{
													OFFSET 0.00000 0.00000 0.00000
												}
											}
										}
									}
									JOINT LeftHandMiddle1
									{
										OFFSET 14.26970 0.00000 -0.09147
										CHANNELS 3 Zrotation Xrotation Yrotation
										JOINT LeftHandMiddle2
										{
											OFFSET 6.17440 0.00000 0.00000
											CHANNELS 3 Zrotation Xrotation Yrotation
											JOINT LeftHandMiddle3
											{
												OFFSET 3.56744 0.00000 0.00000
												CHANNELS 3 Zrotation Xrotation Yrotation
												End site
												{
													OFFSET 0.00000 0.00000 0.00000
												}
											}
										}
									}
									JOINT LeftHandRing1
									{
										OFFSET 12.69180 0.00000 -3.06433
										CHANNELS 3 Zrotation Xrotation Yrotation
										JOINT LeftHandRing2
										{
											OFFSET 5.62556 0.00000 0.00000
											CHANNELS 3 Zrotation Xrotation Yrotation
											JOINT LeftHandRing3
											{
												OFFSET 3.56744 0.00000 0.00000
												CHANNELS 3 Zrotation Xrotation Yrotation
												End site
												{
													OFFSET 0.00000 0.00000 0.00000
												}
											}
										}
									}
									JOINT LeftHandPinky1
									{
										OFFSET 11.11390 0.00000 -6.03719
										CHANNELS 3 Zrotation Xrotation Yrotation
										JOINT LeftHandPinky2
										{
											OFFSET 4.52789 0.00000 0.00000
											CHANNELS 3 Zrotation Xrotation Yrotation
											JOINT LeftHandPinky3
											{
												OFFSET 2.46976 0.00000 0.00000
												CHANNELS 3 Zrotation Xrotation Yrotation
												End site
												{
													OFFSET 0.00000 0.00000 0.00000
												}
											}
										}
									}
								}
							}
						}
					}
					JOINT pCube4
					{
						OFFSET 0.00000 10.91090 1.10792
						CHANNELS 3 Zrotation Xrotation Yrotation
						End site
						{
							OFFSET 0.00000 0.00000 0.00000
						}
					}
				}
			}
		}
	}
	JOINT RightUpLeg
	{
		OFFSET -9.98441 0.00000 0.00000
		CHANNELS 3 Zrotation Xrotation Yrotation
		JOINT RightLeg
		{
			OFFSET 0.00000 -42.11790 0.00000
			CHANNELS 3 Zrotation Xrotation Yrotation
			JOINT RightFoot
			{
				OFFSET 0.00000 -45.00020 -0.00001
				CHANNELS 3 Zrotation Xrotation Yrotation
				JOINT RightForeFoot
				{
					OFFSET 0.00000 -3.74820 0.00000
					CHANNELS 3 Zrotation Xrotation Yrotation
					JOINT RightToeBase
					{
						OFFSET 0.00000 0.06325 14.43120
						CHANNELS 3 Zrotation Xrotation Yrotation
						End site
						{
							OFFSET 0.00000 0.00000 0.00000
						}
					}
				}
			}
		}
	}
	JOINT LeftUpLeg
	{
		OFFSET 9.98441 0.00000 0.00000
		CHANNELS 3 Zrotation Xrotation Yrotation
		JOINT LeftLeg
		{
			OFFSET 0.00000 -42.11800 0.00000
			CHANNELS 3 Zrotation Xrotation Yrotation
			JOINT LeftFoot
			{
				OFFSET 0.00000 -45.00070 0.00000
				CHANNELS 3 Zrotation Xrotation Yrotation
				JOINT LeftForeFoot
				{
					OFFSET 0.00000 -3.74824 0.00000
					CHANNELS 3 Zrotation Xrotation Yrotation
					JOINT LeftToeBase
					{
						OFFSET 0.00000 0.06325 14.43110
						CHANNELS 3 Zrotation Xrotation Yrotation
						End site
						{
							OFFSET 0.00000 0.00000 0.00000
						}
					}
				}
			}
		}
	}
}
MOTION
Frames: 4
Frame Time: 0.050000
-0.043693428250511646 0.020842323057658266 -0.015125432055656515 -0.0034365438697404084 -0.0030875566482719344 -0.00345962764724089 -2.524897171896815 -0.32986077338602854 -0.8874553745197551 -0.7208187525986856 3.5454303752332685 0.343786164941476 -1.0871700247858258 -2.269113326745898 -2.258843420269653 0.3209012228391038 -0.003273211224844169 -1.0217105671371969 -0.03422536054826936 13.008006230728574 0.026672933221200866 0.2363476646554332 0.41359464672531154 -0.33588503382283796 0.16517132622257644 -14.076380744076904 -0.010967408471964979 -4.1827156599522715 1.5302075325005944 -14.43393455650962 69.29464454822711 9.474566614734458 9.940451599468913 50.44472415386067 4.719209391011211 94.59798577088469 25.243713854323968 -0.3317065951552541 -5.027034623326307 4.488270089804632 -0.15634525365450813 -1.6145687249112977 0.01940787146754602 0.032495671975144365 -56.236826510460375 -0.01735693778987232 -0.033664129962578344 -56.20733360172919 -38.798146846211516 -0.043548305993489946 0.016007778218413073 -0.017923187927570614 -0.013475958647241737 -0.038167771536023076 0.02033239398907424 0.01969334353328636 0.022243677941856586 -36.68923880149623 -0.03310751150913151 -0.009830689442707161 0.012729384644942866 -0.04146629788329624 0.025127494434842516 0.00462441291524313 -0.004770575867650133 0.037958990964821956 -19.792963550897113 -0.042139115120950504 -0.045757705485145544 -0.03689755086914031 -0.04084627415644682 0.010898053178580504 -0.003667318462103121 -0.026574429359401713 -0.04623937154335458 24.059573152197494 -0.022820240459476497 0.018973065276956844 28.85344956041738 0.046877381049651536 0.03682919603512974 28.87176640706576 0.01326696776139535 0.03706946530025546 6.977948688822829 1.621491755192029 11.903251195084861 -69.31123447746538 14.140919556914652 -15.098011785740098 -75.19396328303216 0.4491571916762154 -96.59436124273263 -17.471043035683422 -2.067730761706943 -0.04124672612767061 -0.5061366895454813 0.04019106832673133 -8.172044050775249 -0.036636941874744894 -0.0392627766234423 44.61025102719412 -0.018093057821558914 0.030147878733388006 44.59986992727702 12.445608088147052 0.012429235722476202 -0.013115010551720239 0.03025178739640631 0.03637273554445036 -0.043350736285220674 -0.0027961187775931745 -0.012711952469036355 -0.006971258880328457 11.113321060073721 0.01345525332937588 -0.020249631178727388 -0.0388907150265454 -0.038260455008980516 0.0044405692651545 -0.016938028865569475 0.03341849579379378 0.03554030161519767 4.747013926478682 -0.02814990623221924 -0.017071158350047494 -0.0011009229643101793 0.022534797863944613 -0.01873506068924089 0.0010494836508563056 0.020678542338727575 0.040069038167538366 -5.595131745965769 -0.0038554355081697185 0.04395347813092393 -6.688659734238531 0.034279938928232626 0.028672833517430833 -6.741999796436183 -0.00423878070977053 -0.04684173561492956 0.011310847890772649 -0.042132607495903245 -0.03638594365216278 8.032924842991692 3.444297549188234 -19.205123480815477 0.04119155475776382 10.349665875182186 0.04559769743457692 -5.640393967392683 -15.658626073457748 3.207126625878723 -0.04653676497219736 -0.03396874832120868 0.0362625207907642 -0.01718062064666896 4.679408560652734 -0.02508433750758807 12.490141832707469 -8.243865960489053 6.8983079611138916 0.02098949553017596 46.399923003585364 -0.0018939640527938552 -4.294115743784617 -14.749164269575953 -3.800640206183442 -0.0014824745859481252 0.0455074679838656 0.012178258089873743 -0.04328088257472125 -10.783602030222124 -0.024288428567449897 
7.348398623067193e-05 -0.03908952280533824 -0.02065251671493328 0.023697847636268508 0.017151381535920187 0.03001848242359463 -2.50942364567225 -0.434146819794354 -0.8968690167561484 -0.7087314342103718 3.553994453876924 0.2881010592657139 -1.0396106513419276 -2.267029594524603 -2.193776293696539 0.27926620338053687 0.04221153280985086 -1.0183131999071904 -0.05791269767998773 12.903887751936853 0.0458427574573812 0.24092991703182837 0.33713947504555747 -0.19277321965850083 0.17024930521328346 -14.1165585101405 -0.003992726087679603 -4.0895970123678085 1.4833580942668119 -14.58057147882482 69.58781499556329 10.693899307920978 8.647115394407283 50.529838352572725 5.412491775495833 94.02296495810414 25.130932353239206 -0.37299889076120635 -4.96366518182135 4.48572343302647 -0.0886746424179172 -1.5735696586648624 -0.027096221501207697 0.0067191199305473796 -56.21529653597775 -0.01709529915629535 -0.0015417652771290982 -56.193445000703946 -38.73561649677069 0.009653927498054262 0.026322016629840995 -0.04088044347953208 0.00809222225061321 -0.023201990542516673 -0.048529690525942484 -0.02481496137878777 -0.017593206144984355 -36.717143815954195 0.014623138181771897 -0.006140061448739905 0.03208353550316055 0.023307809653358037 0.04885247508478008 -0.008131441399429097 0.007771107661701557 0.03628964067535108 -19.800776366972702 -0.0386421522667796 -0.01038182724191888 0.00397770262761809 -0.024156738749815276 0.0013548745111709322 -0.03362414607265109 -0.0003656913431810141 -0.046138861371442 24.047965939545783 -0.047759163487869793 0.030208822553413808 28.901052020543307 -0.00996854292340745 -0.01328008056012002 28.888521611473415 -0.018213436064958368 0.0048053415841004124 6.91712322267555 1.6030498173767411 11.967238222437668 -70.04317966551304 14.183904317009056 -13.944808513333594 -78.24326051476974 0.9346728805460908 -97.77058932011181 -18.04548879233802 -2.1079586310117127 -0.1805352332586098 -0.4273083573244276 0.04258173552888711 -8.098982685234272 -0.016513574017754853 -0.009755154234771997 44.59964901371533 -0.013077540083552898 -0.048051076778313544 44.5840840545457 12.417166506044836 0.011687528319120104 -0.00010160961746763115 0.003979804003289231 0.01550215508175514 -0.030697398836830533 -0.016222306280752236 0.01312749126446808 -0.009317745731984215 11.090257516429594 -0.02443267003247369 0.02601581338912762 -0.012527800117681488 0.015102042887816771 0.033694372693940836 0.039400750350842735 -0.02946371496216862 0.001904535623619156 4.784894973828624 0.005836706100176526 0.03131434615191666 -0.009004153672600749 -0.02775896946583477 0.03309105840955866 -0.044276600372971986 -0.04275892200263366 0.015277993628267704 -5.646587803469234 -0.04648649510511756 -0.033061248832674826 -6.695724689953534 0.007522399999633128 0.04449984410208899 -6.675567755597572 0.03277358778331616 -0.029242994968079417 0.02211971039097268 0.048977762842515385 0.03437310319539303 8.085101251855862 3.537873043040134 -19.189120691389437 -0.04124936069872632 10.397303474493832 0.022938470077572437 -5.606358757101898 -15.611001111960311 3.1575181953850087 -0.013792467897898097 -0.04845414313833766 0.005792057875428281 -0.04808358775244328 4.715825567032444 0.023754819997851947 12.471051138467343 -8.219472047909719 6.897243439957979 -0.01013863949580862 46.38049308434343 -0.006520961390066188 -4.341146944803327 -14.731728221159942 -3.8179549910695862 -0.025728305222248095 0.0003681381001413141 -0.04089670501386515 0.04780692838151053 -10.780896848117706 -0.012383304466965039 
-0.0487435766463205 0.014002782046397183 -0.017358367723615303 -0.0046625278494187555 -0.020552663439803956 -0.008457430757866343 -2.5359310161216744 -0.47316250225821804 -0.9154499540170767 -0.7893972678798901 3.5177569894177916 0.3273158147486761 -1.0589506554489598 -2.296242940893454 -2.2449228001237618 0.2701118367081807 0.031495638571952235 -0.9652311793387305 -0.05069935221315635 12.841874755743351 0.08129131854285386 0.1936001227592624 0.2537857815760779 -0.3515820546699483 0.10692407722558497 -14.178385495132703 -0.02474491015710589 -3.944731804246583 1.5239979459026707 -14.630736061372414 69.71905404064178 10.51415054602501 7.5647435337902795 49.128202624536286 6.0634465426283155 92.83336577479282 24.8927275022356 -0.3697605777144112 -4.929844189443297 4.498968082122005 -0.1410823768404672 -1.5757698507111377 0.01313540252965859 0.026758304779385775 -56.278987624529485 0.04924530681682155 -0.01937834813947952 -56.2670620697105 -38.76938244030374 0.04020031169271548 0.042413302110579844 -0.00167652532299642 0.04264114767768493 -0.005476589278409244 -0.017525535335973168 0.004048637665195686 -0.0476668320181158 -36.67721081737376 0.03923223178113533 -0.02977499857674266 0.04426777188896126 -0.03307393838950918 0.03392473699922394 -0.03263311686709681 -0.02788899675136085 0.00032573672938744576 -19.763175783488467 -0.03772372332536988 0.003623689864172312 -0.03853016906730826 -0.009494919897906197 -0.037546590147712854 -0.013062070770720014 -0.0208891528777834 -0.005156979804356319 24.094058295701835 0.03401790330616998 -0.03265038815774453 28.87038802502084 -0.013152203636729585 -0.006389124800225612 28.856276419742024 -0.03302576124645699 -0.005973325924892611 6.787676843543354 1.6540060324411425 12.073998073869882 -70.38536467634063 13.408518234288223 -13.255404512353017 -78.9982576697732 0.9962685635548416 -98.14961578750248 -17.659272626745242 -1.8258606045976524 -0.5362922696496332 -0.47969301459090247 0.10143717258571025 -8.103604625982957 -0.01572544573476937 -0.021138450793592268 44.56986491141282 -0.03486810824614164 0.030465796787535176 44.546174582455365 12.472788950413204 -0.0313994384132127 0.020161590445616214 -0.006743504411664887 0.008579951587566402 0.011379200953002816 0.03340671914610339 -0.006045733367235644 0.016987026960063562 11.064267297791647 0.025108730068521077 -0.010016383985104701 0.01917689720435664 -0.027386644498339937 0.022979046197914108 -0.021726843034640425 -0.043831481358254015 0.034238010316428494 4.818723206431839 0.019611395248013815 -0.01894000470491816 -0.00080163222118257 -0.02118547565003754 0.03361450436285102 0.026177377215414133 0.0052526156805403415 -0.0031592616846587824 -5.6027846104967685 -0.03181109965649221 -0.03332057731101154 -6.731006441562291 -0.04084104512983644 -0.02960609796149866 -6.709517141992977 0.03861918386023639 -0.008873987775874774 0.03410634007650288 -0.034186498073795195 0.010869944887319755 8.037021598110979 3.486515838185868 -19.25742898748465 0.016945010260936345 10.406070716515634 0.055843396247661534 -5.622790870704369 -15.618792376828251 3.196091149278305 -0.004992087297069358 -0.012129043910123845 -0.0023128538832303223 -0.002877925444376517 4.679507264193764 0.015316948848648114 12.472775821357748 -8.198177144401892 6.837037838004968 0.01358665009624918 46.38052884313463 0.006490570276739833 -4.330040417238412 -14.775959114239129 -3.8135273957267826 0.04714377538272117 -0.03478705382969536 0.027319970744108628 -0.015864337198886143 -10.734595342723633 -0.022598136642285525 
0.011580469996024863 -0.038949596928968086 0.0035165726677750734 -0.03207970749031243 -0.016296089159345377 -0.007386289144172053 -2.684330299878576 -0.45698117813346645 -0.8734768880963558 -0.7943694856763573 3.5292163364741236 0.3171868495455058 -1.098430226550878 -2.2821781420594704 -2.2985737823805534 0.315405213364443 0.045896297713974056 -1.0054515861723574 -0.02789539901949737 12.674972795989286 0.0390174221822076 0.21434792186083096 0.25773166315981966 -0.3493570278545428 0.18230521580874642 -14.25508918794177 0.0011073164782745924 -3.826860599979591 1.4931470891492054 -14.719274792523668 69.70718325387605 9.871388055246593 6.633669497576679 47.787662554466486 6.556177542290438 91.95412666980583 24.73742987951086 -0.32878463352799714 -5.07921212251809 4.496816671609946 -0.10418362678581489 -1.5519403560132297 0.038604162284521105 -0.019782468677155197 -56.20379684631321 0.031064378682135105 -0.04747929026455473 -56.21688086886388 -38.805997311928316 -0.014386928163469787 0.022174711570670327 0.0416804546706054 0.012646933286770688 -0.012827243893307092 0.004953203941533513 0.005926131132692583 -0.027667474205140898 -36.69970090196197 0.038714833074007055 0.046358901594877766 0.0010765099843373298 -0.023088440263386825 0.0067625795696725725 0.027869371678158072 -0.025470404985283603 0.03887610538135196 -19.754989227483893 -0.039369758658729964 -0.026276192980460515 -0.04154983278999201 -0.03257749080234823 -0.03689309338758638 -0.01742506471259621 0.016991704347687514 0.01916341488046031 24.052665234883182 -0.017130886426932543 0.038292663684383194 28.880694015701216 -0.023685889408657627 -0.01667608201162866 28.89307626312321 0.049917171632899354 -0.04046399183601803 6.627849775173369 1.6247312032652492 12.113922076943068 -70.75532481542093 12.582829708856526 -12.55890240631727 -78.97092882244388 1.0718826923121074 -98.25253381866158 -17.148338557396738 -1.620290130982389 -0.8012018359341183 -0.5217875753356828 0.07259674008379352 -8.091302276355995 -0.043828281332628775 -0.009412624714572932 44.589622325891334 -0.037330308977969455 0.03600370045929041 44.60202060730569 12.492855911812365 0.0067121127788025 -0.014814997148191157 -0.0009571401224537506 0.015561360131683447 -0.011143190469577046 0.00839853948678032 0.008752977301323697 -0.042235284565709526 11.08108937624645 0.025920054952547372 0.011733654833800101 -0.0013487370796009012 0.04350573916981928 0.02838310057629401 0.008231329478976231 -0.0038907487209062412 0.0030746138350316457 4.797337669202681 0.04726682433460248 -0.03376416109537549 -0.012341676968302998 -0.012900012058393624 -0.039460595094557155 -0.022872766605990455 -0.03978327488112566 0.01550906071658414 -5.604810473152539 -0.028506446913223103 0.03983494306308055 -6.755829485497244 0.00671059338847222 -0.022058190308658816 -6.690659147280013 0.011623353163301806 -0.02077081880712578 0.010207087169196969 -0.047958628675633254 -0.00017898361595872068 8.049523487778803 3.516788791002401 -19.207849701780464 -0.012604428613373995 10.392792490496126 -0.0018807677841625008 -5.6138043353497755 -15.646144273169885 3.212652041301265 0.007923416979243016 -0.005245615552336394 0.0007250696395289114 0.010724843993446033 4.723849378389837 -0.02785173439481717 12.412316473319667 -8.19369254852627 6.835060600400752 0.002680882528423018 46.408647160167156 0.019020092781938846 -4.276893319754259 -14.79352968202777 -3.805945499870916 -0.029265803626749565 0.009968150062034392 0.0046902053933083705 0.04578458970703476 -10.758888073633123 0.04197280020080522 
